<svg xmlns="http://www.w3.org/2000/svg" viewBox="0 0 1378 79"><defs><style>.cls-1{isolation:isolate;}.cls-2{fill:#ccc;}.cls-3{fill:gray;mix-blend-mode:darken;}.cls-4{fill:#999;}.cls-5{fill:#c1272d;}</style></defs><title>progressArtboard 21 copy 2</title><g class="cls-1"><g id="Layer_1" data-name="Layer 1"><path class="cls-2" d="M294.38,1.09H39A38.45,38.45,0,0,0,.49,39.54h0A38.46,38.46,0,0,0,39,78H217.46Z"/><polygon class="cls-2" points="629.38 1.09 301.45 1.09 224.53 78 552.47 78 629.38 1.09"/><polygon class="cls-2" points="1021.38 1.09 636.45 1.09 559.53 78 944.47 78 1021.38 1.09"/><path class="cls-3" d="M1339.54,1.09H1028.45L951.54,78h388A38.46,38.46,0,0,0,1378,39.54h0A38.45,38.45,0,0,0,1339.54,1.09Z"/><path class="cls-4" d="M50.22,23.8a9.23,9.23,0,0,1,3,.46,5.86,5.86,0,0,1,2.25,1.37A6.21,6.21,0,0,1,56.86,28a9.77,9.77,0,0,1,.5,3.27,9.4,9.4,0,0,1-.53,3.28,6.27,6.27,0,0,1-1.51,2.38,6.39,6.39,0,0,1-2.41,1.43,9.64,9.64,0,0,1-3.2.49H44.8v-15ZM49.8,36.63a6,6,0,0,0,2.25-.37,4,4,0,0,0,1.54-1.09,4.47,4.47,0,0,0,.87-1.71,8.39,8.39,0,0,0,.27-2.22,6.34,6.34,0,0,0-1-3.88A4,4,0,0,0,50.24,26h-2.9V36.63Z"/><path class="cls-4" d="M68.68,39.18a7.47,7.47,0,0,1-2.91-.54,6.29,6.29,0,0,1-2.22-1.54,7.05,7.05,0,0,1-1.42-2.47,11.35,11.35,0,0,1,0-6.63,7.09,7.09,0,0,1,1.43-2.48A6.16,6.16,0,0,1,65.8,24a8.12,8.12,0,0,1,5.77,0,6,6,0,0,1,2.21,1.54A7,7,0,0,1,75.17,28a10.32,10.32,0,0,1,.5,3.31,10.66,10.66,0,0,1-.48,3.33,7.2,7.2,0,0,1-1.39,2.48,5.91,5.91,0,0,1-2.19,1.55A7.57,7.57,0,0,1,68.68,39.18Zm0-2.19a3.81,3.81,0,0,0,3.28-1.52A7,7,0,0,0,73,31.3a9.07,9.07,0,0,0-.28-2.37,5.38,5.38,0,0,0-.83-1.79A3.72,3.72,0,0,0,70.57,26a4.78,4.78,0,0,0-3.83,0,3.84,3.84,0,0,0-1.37,1.13,5,5,0,0,0-.83,1.79,9.53,9.53,0,0,0-.27,2.37,7,7,0,0,0,1.1,4.17A3.79,3.79,0,0,0,68.65,37Z"/><path class="cls-4" d="M81.53,23.8,84.3,35.19l2.85-11.3h2.71l2.9,11.28L95.45,23.8h2.71L94,38.8H91.48l-3-11.8-3,11.8H83l-4.31-15Z"/><path class="cls-4" d="M102.09,23.8h2.35l6.89,10.84V23.8h2.47v15h-2.35L104.54,28V38.8h-2.45Z"/><path class="cls-4" d="M121.64,23.8V36.59h7.43l-.31,2.21H119.1v-15Z"/><path class="cls-4" d="M138.81,39.18a7.46,7.46,0,0,1-2.9-.54,6.2,6.2,0,0,1-2.22-1.54,6.9,6.9,0,0,1-1.42-2.47,11.35,11.35,0,0,1,0-6.63,7.09,7.09,0,0,1,1.43-2.48A6.16,6.16,0,0,1,135.94,24a8.12,8.12,0,0,1,5.77,0,6,6,0,0,1,2.21,1.54A7,7,0,0,1,145.31,28a10.32,10.32,0,0,1,.5,3.31,10.66,10.66,0,0,1-.48,3.33,7.2,7.2,0,0,1-1.39,2.48,5.87,5.87,0,0,1-2.2,1.55A7.5,7.5,0,0,1,138.81,39.18Zm0-2.19a3.81,3.81,0,0,0,3.28-1.52,7,7,0,0,0,1.11-4.17,9.07,9.07,0,0,0-.28-2.37,5.38,5.38,0,0,0-.83-1.79A3.72,3.72,0,0,0,140.71,26a4.78,4.78,0,0,0-3.83,0,3.84,3.84,0,0,0-1.37,1.13,5,5,0,0,0-.83,1.79,9.51,9.51,0,0,0-.28,2.37,7,7,0,0,0,1.11,4.17A3.79,3.79,0,0,0,138.79,37Z"/><path class="cls-4" d="M154.1,23.8h2.52l5.71,15h-2.7L158.22,35H152.4L151,38.8h-2.63Zm3.43,9.06-2.23-6.18-2.21,6.18Z"/><path class="cls-4" d="M171.68,23.8a9.18,9.18,0,0,1,3,.46,5.86,5.86,0,0,1,2.25,1.37A6.22,6.22,0,0,1,178.33,28a10,10,0,0,1,.49,3.27,9.4,9.4,0,0,1-.53,3.28,6.27,6.27,0,0,1-1.51,2.38,6.35,6.35,0,0,1-2.4,1.43,9.69,9.69,0,0,1-3.2.49h-4.92v-15Zm-.42,12.83a6.12,6.12,0,0,0,2.26-.37,4,4,0,0,0,1.53-1.09,4.47,4.47,0,0,0,.87-1.71,8.39,8.39,0,0,0,.27-2.22,6.34,6.34,0,0,0-1.05-3.88A4,4,0,0,0,171.7,26h-2.9V36.63Z"/><path class="cls-4" d="M183.61,23.8h2.54v15h-2.54Z"/><path class="cls-4" d="M191.42,23.8h2.35l6.89,10.84V23.8h2.48v15h-2.35L193.88,28V38.8h-2.46Z"/><path class="cls-4" d="M220.84,30.84V37a7.51,7.51,0,0,1-2.73,1.62,9.75,9.75,0,0,1-3.17.55,7.84,7.84,0,0,1-3.06-.56A5.93,5.93,0,0,1,209.69,37a6.54,6.54,0,0,1-1.32-2.46,11,11,0,0,1-.45-3.26,10.42,10.42,0,0,1,.49-3.28,7.27,7.27,0,0,1,1.36-2.49A5.92,5.92,0,0,1,211.92,24a7,7,0,0,1,2.81-.54,7.43,7.43,0,0,1,2.38.34A5,5,0,0,1,220,26.15a6.25,6.25,0,0,1,.62,1.73l-2.5.35a6.09,6.09,0,0,0-.41-1.12,2.61,2.61,0,0,0-.63-.83,2.75,2.75,0,0,0-1-.51,4.48,4.48,0,0,0-1.36-.18,4,4,0,0,0-1.84.41,3.64,3.64,0,0,0-1.31,1.16A5.42,5.42,0,0,0,210.8,29a9.91,9.91,0,0,0-.25,2.33,10.08,10.08,0,0,0,.25,2.37,5.11,5.11,0,0,0,.8,1.8A3.48,3.48,0,0,0,213,36.61a4.52,4.52,0,0,0,2,.4,7.32,7.32,0,0,0,1.89-.22,5,5,0,0,0,1.62-.76V33h-3.32V30.84Z"/><path class="cls-4" d="M44.8,43.8h2.54v15H44.8Z"/><path class="cls-4" d="M52.61,43.8H55.7L60,55.73,64.35,43.8h3v15H65V47.9L60.88,58.8h-2l-4-10.88V58.8H52.61Z"/><path class="cls-4" d="M77,43.8h2.52l5.71,15H82.49L81.09,55H75.27L73.88,58.8H71.26Zm3.42,9.06-2.22-6.18L76,52.86Z"/><path class="cls-4" d="M100.7,50.84V57A7.51,7.51,0,0,1,98,58.63a9.75,9.75,0,0,1-3.17.55,7.84,7.84,0,0,1-3.06-.56A5.93,5.93,0,0,1,89.55,57a6.54,6.54,0,0,1-1.32-2.46,11,11,0,0,1-.44-3.26A10.43,10.43,0,0,1,88.27,48a7.11,7.11,0,0,1,1.36-2.49A5.92,5.92,0,0,1,91.78,44a7,7,0,0,1,2.81-.54,7.43,7.43,0,0,1,2.38.34,5,5,0,0,1,1.72,1,4.89,4.89,0,0,1,1.14,1.42,6.25,6.25,0,0,1,.62,1.73l-2.5.35a6.09,6.09,0,0,0-.41-1.12,2.61,2.61,0,0,0-.63-.83,2.75,2.75,0,0,0-1-.51,4.48,4.48,0,0,0-1.36-.18,4,4,0,0,0-1.84.41,3.64,3.64,0,0,0-1.31,1.16A5.42,5.42,0,0,0,90.66,49a9.91,9.91,0,0,0-.25,2.33,10.08,10.08,0,0,0,.25,2.37,5.11,5.11,0,0,0,.8,1.8,3.48,3.48,0,0,0,1.38,1.14,4.52,4.52,0,0,0,2,.4,7.32,7.32,0,0,0,1.89-.22A5,5,0,0,0,98.35,56V53H95V50.84Z"/><path class="cls-4" d="M105.53,43.8h10V46h-7.43v4h7v2.2h-7v4.43h7.83l-.29,2.19H105.53Z"/><path class="cls-4" d="M121.87,54.22a2.93,2.93,0,0,0,1.06,2.14,4.35,4.35,0,0,0,2.65.67,4.63,4.63,0,0,0,1.45-.19,2.51,2.51,0,0,0,1-.5,1.74,1.74,0,0,0,.5-.74,2.82,2.82,0,0,0,.15-.92,2.75,2.75,0,0,0-.1-.7,1.63,1.63,0,0,0-.38-.64,2.49,2.49,0,0,0-.74-.52,4.82,4.82,0,0,0-1.17-.34l-1.92-.36a13.27,13.27,0,0,1-2-.53,4.67,4.67,0,0,1-1.48-.82,3.32,3.32,0,0,1-.9-1.26,4.71,4.71,0,0,1-.31-1.82,3.71,3.71,0,0,1,1.62-3.2,5.15,5.15,0,0,1,1.79-.8,9,9,0,0,1,2.26-.26,8.09,8.09,0,0,1,2.6.35,5,5,0,0,1,1.71.94,3.83,3.83,0,0,1,1,1.33,5.74,5.74,0,0,1,.46,1.58l-2.39.37a3.29,3.29,0,0,0-1-1.87,3.58,3.58,0,0,0-2.3-.6,6.31,6.31,0,0,0-1.5.15,2.68,2.68,0,0,0-1,.45,1.56,1.56,0,0,0-.53.65,2,2,0,0,0-.16.76,1.87,1.87,0,0,0,.54,1.47,4.08,4.08,0,0,0,1.88.76l2.08.4a6.71,6.71,0,0,1,3.48,1.5,4,4,0,0,1,1.12,3,4.46,4.46,0,0,1-.35,1.76,3.7,3.7,0,0,1-1.06,1.4,5.29,5.29,0,0,1-1.78.95,7.93,7.93,0,0,1-2.46.35A7.51,7.51,0,0,1,121.11,58a4.78,4.78,0,0,1-1.8-3.75Z"/><path class="cls-4" d="M308.8,23.8H314a8.85,8.85,0,0,1,2.8.38,4.45,4.45,0,0,1,1.73,1,3.4,3.4,0,0,1,.88,1.46,5.84,5.84,0,0,1,.26,1.73,6.62,6.62,0,0,1-.26,1.85,3.47,3.47,0,0,1-.89,1.54,4.45,4.45,0,0,1-1.73,1.05,8.3,8.3,0,0,1-2.75.39H311.3V38.8h-2.5ZM314,31.09a5.4,5.4,0,0,0,1.59-.19,2.35,2.35,0,0,0,1-.53,2,2,0,0,0,.49-.83,4.11,4.11,0,0,0,.14-1.09,3.73,3.73,0,0,0-.15-1.11,1.69,1.69,0,0,0-.52-.79,2.43,2.43,0,0,0-1-.48,6.27,6.27,0,0,0-1.57-.17H311.3v5.19Z"/><path class="cls-4" d="M329.32,23.8a8.52,8.52,0,0,1,2.8.4,4.88,4.88,0,0,1,1.74,1,3.43,3.43,0,0,1,.89,1.42,4.92,4.92,0,0,1,.26,1.53,4.87,4.87,0,0,1-.58,2.46,4.18,4.18,0,0,1-1.86,1.6l3.11,6.55h-2.77l-2.69-6-.4,0h-3.13V38.8h-2.5v-15Zm.18,6.93a4.79,4.79,0,0,0,1.43-.18,2,2,0,0,0,.89-.5,1.82,1.82,0,0,0,.47-.79,3.63,3.63,0,0,0,.13-1,2.87,2.87,0,0,0-.15-.95,1.75,1.75,0,0,0-.53-.74,2.56,2.56,0,0,0-1-.47,5.82,5.82,0,0,0-1.51-.17h-2.56v4.83Z"/><path class="cls-4" d="M346.12,39.18a7.47,7.47,0,0,1-2.91-.54A6.29,6.29,0,0,1,341,37.1a7.05,7.05,0,0,1-1.42-2.47,11.35,11.35,0,0,1,0-6.63A7.09,7.09,0,0,1,341,25.52,6.16,6.16,0,0,1,343.24,24,8.12,8.12,0,0,1,349,24a6,6,0,0,1,2.21,1.54A7,7,0,0,1,352.61,28a10.32,10.32,0,0,1,.5,3.31,10.66,10.66,0,0,1-.48,3.33,7.2,7.2,0,0,1-1.39,2.48,5.87,5.87,0,0,1-2.2,1.55A7.49,7.49,0,0,1,346.12,39.18Zm0-2.19a3.81,3.81,0,0,0,3.28-1.52,7,7,0,0,0,1.11-4.17,9.07,9.07,0,0,0-.28-2.37,5.38,5.38,0,0,0-.83-1.79A3.67,3.67,0,0,0,348,26a4.23,4.23,0,0,0-1.91-.4,4.29,4.29,0,0,0-1.91.4,3.84,3.84,0,0,0-1.37,1.13,5,5,0,0,0-.83,1.79,9.53,9.53,0,0,0-.27,2.37,7,7,0,0,0,1.1,4.17A3.79,3.79,0,0,0,346.09,37Z"/><path class="cls-4" d="M370.45,33.74a7.15,7.15,0,0,1-.56,2.16,5.39,5.39,0,0,1-1.22,1.72,5.61,5.61,0,0,1-1.89,1.15,7.51,7.51,0,0,1-2.58.41,7.34,7.34,0,0,1-2.89-.55,5.78,5.78,0,0,1-2.14-1.56,6.79,6.79,0,0,1-1.33-2.48,11.1,11.1,0,0,1-.45-3.27,10.68,10.68,0,0,1,.49-3.32,7,7,0,0,1,1.4-2.48A6,6,0,0,1,361.45,24a6.94,6.94,0,0,1,2.77-.53,7.37,7.37,0,0,1,2.43.35,5.09,5.09,0,0,1,1.76,1,5,5,0,0,1,1.15,1.59,8.29,8.29,0,0,1,.64,2.06l-2.5.35a7.29,7.29,0,0,0-.42-1.34,3.06,3.06,0,0,0-.66-1,2.76,2.76,0,0,0-1-.63,3.92,3.92,0,0,0-1.4-.22,3.81,3.81,0,0,0-1.79.4,3.76,3.76,0,0,0-1.31,1.14,5.31,5.31,0,0,0-.81,1.8A9.43,9.43,0,0,0,360,31.3a9.07,9.07,0,0,0,.28,2.37,5.53,5.53,0,0,0,.83,1.8,3.62,3.62,0,0,0,1.31,1.13,3.83,3.83,0,0,0,1.76.39,4.22,4.22,0,0,0,1.5-.23,2.83,2.83,0,0,0,1-.65,3,3,0,0,0,.66-1,5.79,5.79,0,0,0,.35-1.35Z"/><path class="cls-4" d="M375,23.8h10V26h-7.43v4h7v2.2h-7v4.43h7.83L385,38.8H375Z"/><path class="cls-4" d="M391.29,34.22a2.93,2.93,0,0,0,1.06,2.14A4.35,4.35,0,0,0,395,37a4.63,4.63,0,0,0,1.45-.19,2.59,2.59,0,0,0,.95-.5,1.84,1.84,0,0,0,.5-.74,2.82,2.82,0,0,0,.15-.92,2.38,2.38,0,0,0-.11-.7,1.52,1.52,0,0,0-.38-.64,2.32,2.32,0,0,0-.73-.52,4.78,4.78,0,0,0-1.18-.34l-1.91-.36a13,13,0,0,1-2-.53,4.56,4.56,0,0,1-1.48-.82,3.34,3.34,0,0,1-.91-1.26,4.92,4.92,0,0,1-.3-1.82,3.71,3.71,0,0,1,1.62-3.2,5.15,5.15,0,0,1,1.79-.8,9,9,0,0,1,2.26-.26,8.13,8.13,0,0,1,2.6.35,4.83,4.83,0,0,1,1.7.94,3.74,3.74,0,0,1,1,1.33,6.11,6.11,0,0,1,.46,1.58l-2.39.37a3.41,3.41,0,0,0-1-1.87,3.58,3.58,0,0,0-2.3-.6,6.31,6.31,0,0,0-1.5.15,2.82,2.82,0,0,0-1,.45,1.54,1.54,0,0,0-.52.65,1.82,1.82,0,0,0-.16.76,1.87,1.87,0,0,0,.54,1.47,4,4,0,0,0,1.88.76l2.07.4a6.71,6.71,0,0,1,3.49,1.5,4,4,0,0,1,1.11,3,4.45,4.45,0,0,1-.34,1.76,3.7,3.7,0,0,1-1.06,1.4,5.29,5.29,0,0,1-1.78.95,8,8,0,0,1-2.47.35A7.5,7.5,0,0,1,390.53,38a4.79,4.79,0,0,1-1.81-3.75Z"/><path class="cls-4" d="M407.12,34.22a2.93,2.93,0,0,0,1.06,2.14,4.36,4.36,0,0,0,2.66.67,4.72,4.72,0,0,0,1.45-.19,2.54,2.54,0,0,0,.94-.5,1.66,1.66,0,0,0,.5-.74,2.82,2.82,0,0,0,.15-.92,2.37,2.37,0,0,0-.1-.7,1.63,1.63,0,0,0-.38-.64,2.37,2.37,0,0,0-.74-.52,4.69,4.69,0,0,0-1.17-.34l-1.91-.36a13.1,13.1,0,0,1-2-.53,4.67,4.67,0,0,1-1.48-.82,3.32,3.32,0,0,1-.9-1.26,4.71,4.71,0,0,1-.31-1.82,3.94,3.94,0,0,1,.43-1.87,3.89,3.89,0,0,1,1.19-1.33,5.11,5.11,0,0,1,1.8-.8,8.91,8.91,0,0,1,2.25-.26,8.16,8.16,0,0,1,2.61.35,4.92,4.92,0,0,1,1.7.94,3.83,3.83,0,0,1,1,1.33,6.13,6.13,0,0,1,.47,1.58l-2.4.37a3.29,3.29,0,0,0-1-1.87,3.58,3.58,0,0,0-2.3-.6,6.31,6.31,0,0,0-1.5.15,2.68,2.68,0,0,0-1,.45,1.56,1.56,0,0,0-.53.65,2,2,0,0,0-.16.76A1.87,1.87,0,0,0,408,29a4.08,4.08,0,0,0,1.88.76l2.08.4a6.71,6.71,0,0,1,3.48,1.5,4,4,0,0,1,1.12,3,4.46,4.46,0,0,1-.35,1.76,3.6,3.6,0,0,1-1.06,1.4,5.34,5.34,0,0,1-1.77.95,8,8,0,0,1-2.47.35A7.53,7.53,0,0,1,406.36,38a4.78,4.78,0,0,1-1.8-3.75Z"/><path class="cls-4" d="M421.08,23.8h2.55v15h-2.55Z"/><path class="cls-4" d="M428.9,23.8h2.35l6.89,10.84V23.8h2.47v15h-2.35L431.35,28V38.8H428.9Z"/><path class="cls-4" d="M458.32,30.84V37a7.51,7.51,0,0,1-2.73,1.62,9.75,9.75,0,0,1-3.17.55,7.81,7.81,0,0,1-3.06-.56A5.85,5.85,0,0,1,447.17,37a6.7,6.7,0,0,1-1.33-2.46,11.33,11.33,0,0,1-.44-3.26,10.43,10.43,0,0,1,.48-3.28,7.29,7.29,0,0,1,1.37-2.49A5.89,5.89,0,0,1,449.39,24a7.09,7.09,0,0,1,2.82-.54,7.43,7.43,0,0,1,2.38.34,5,5,0,0,1,1.72,1,4.89,4.89,0,0,1,1.14,1.42,6.24,6.24,0,0,1,.61,1.73l-2.49.35a6.92,6.92,0,0,0-.41-1.12,2.61,2.61,0,0,0-.63-.83,2.75,2.75,0,0,0-1-.51,4.53,4.53,0,0,0-1.36-.18,4,4,0,0,0-1.84.41,3.56,3.56,0,0,0-1.31,1.16,5.42,5.42,0,0,0-.78,1.81A9.91,9.91,0,0,0,448,31.3a10.08,10.08,0,0,0,.25,2.37,4.94,4.94,0,0,0,.8,1.8,3.52,3.52,0,0,0,1.37,1.14,4.56,4.56,0,0,0,2,.4,7.32,7.32,0,0,0,1.89-.22A4.84,4.84,0,0,0,456,36V33h-3.31V30.84Z"/><path class="cls-4" d="M308.8,43.8h2.54v15H308.8Z"/><path class="cls-4" d="M316.61,43.8h3.09L324,55.73l4.39-11.93h3v15H329V47.9l-4.12,10.9h-2l-4-10.88V58.8h-2.29Z"/><path class="cls-4" d="M341,43.8h2.52l5.71,15h-2.71L345.09,55h-5.82l-1.39,3.82h-2.62Zm3.42,9.06-2.22-6.18L340,52.86Z"/><path class="cls-4" d="M364.7,50.84V57A7.51,7.51,0,0,1,362,58.63a9.75,9.75,0,0,1-3.17.55,7.84,7.84,0,0,1-3.06-.56A5.93,5.93,0,0,1,353.55,57a6.54,6.54,0,0,1-1.32-2.46,11,11,0,0,1-.44-3.26,10.43,10.43,0,0,1,.48-3.28,7.11,7.11,0,0,1,1.36-2.49A5.92,5.92,0,0,1,355.78,44a7,7,0,0,1,2.81-.54,7.43,7.43,0,0,1,2.38.34,5,5,0,0,1,1.72,1,4.89,4.89,0,0,1,1.14,1.42,6.25,6.25,0,0,1,.62,1.73l-2.5.35a6.09,6.09,0,0,0-.41-1.12,2.61,2.61,0,0,0-.63-.83,2.75,2.75,0,0,0-1-.51,4.48,4.48,0,0,0-1.36-.18,4,4,0,0,0-1.84.41,3.64,3.64,0,0,0-1.31,1.16,5.42,5.42,0,0,0-.78,1.81,9.91,9.91,0,0,0-.25,2.33,10.08,10.08,0,0,0,.25,2.37,5.11,5.11,0,0,0,.8,1.8,3.48,3.48,0,0,0,1.38,1.14,4.52,4.52,0,0,0,2,.4,7.32,7.32,0,0,0,1.89-.22,5,5,0,0,0,1.62-.76V53H359V50.84Z"/><path class="cls-4" d="M369.53,43.8h10V46h-7.43v4h7v2.2h-7v4.43h7.83l-.29,2.19H369.53Z"/><path class="cls-4" d="M385.87,54.22a2.93,2.93,0,0,0,1.06,2.14,4.35,4.35,0,0,0,2.65.67,4.63,4.63,0,0,0,1.45-.19,2.51,2.51,0,0,0,1-.5,1.74,1.74,0,0,0,.5-.74,2.82,2.82,0,0,0,.15-.92,2.75,2.75,0,0,0-.1-.7,1.63,1.63,0,0,0-.38-.64,2.49,2.49,0,0,0-.74-.52,4.82,4.82,0,0,0-1.17-.34l-1.92-.36a13.27,13.27,0,0,1-2-.53,4.67,4.67,0,0,1-1.48-.82,3.32,3.32,0,0,1-.9-1.26,4.71,4.71,0,0,1-.31-1.82,3.71,3.71,0,0,1,1.62-3.2,5.15,5.15,0,0,1,1.79-.8,9,9,0,0,1,2.26-.26,8.09,8.09,0,0,1,2.6.35,5,5,0,0,1,1.71.94,3.83,3.83,0,0,1,1,1.33,5.74,5.74,0,0,1,.46,1.58l-2.39.37a3.29,3.29,0,0,0-1-1.87,3.58,3.58,0,0,0-2.3-.6,6.31,6.31,0,0,0-1.5.15,2.68,2.68,0,0,0-1,.45,1.56,1.56,0,0,0-.53.65,2,2,0,0,0-.16.76,1.87,1.87,0,0,0,.54,1.47,4.08,4.08,0,0,0,1.88.76l2.08.4a6.71,6.71,0,0,1,3.48,1.5,4,4,0,0,1,1.12,3,4.46,4.46,0,0,1-.35,1.76,3.7,3.7,0,0,1-1.06,1.4,5.29,5.29,0,0,1-1.78.95,7.93,7.93,0,0,1-2.46.35A7.51,7.51,0,0,1,385.11,58a4.78,4.78,0,0,1-1.8-3.75Z"/><path class="cls-5" d="M654.21,30.84V37a7.51,7.51,0,0,1-2.73,1.62,9.75,9.75,0,0,1-3.17.55,7.84,7.84,0,0,1-3.06-.56A5.93,5.93,0,0,1,643.06,37a6.54,6.54,0,0,1-1.32-2.46,11,11,0,0,1-.45-3.26,10.42,10.42,0,0,1,.49-3.28,7.11,7.11,0,0,1,1.36-2.49A5.89,5.89,0,0,1,645.28,24a7.09,7.09,0,0,1,2.82-.54,7.43,7.43,0,0,1,2.38.34,5,5,0,0,1,1.72,1,4.89,4.89,0,0,1,1.14,1.42,6.25,6.25,0,0,1,.62,1.73l-2.5.35a6.09,6.09,0,0,0-.41-1.12,2.61,2.61,0,0,0-.63-.83,2.75,2.75,0,0,0-1-.51,4.53,4.53,0,0,0-1.36-.18,4,4,0,0,0-1.84.41A3.64,3.64,0,0,0,645,27.16a5.42,5.42,0,0,0-.78,1.81,9.91,9.91,0,0,0-.25,2.33,10.08,10.08,0,0,0,.25,2.37,5.11,5.11,0,0,0,.8,1.8,3.52,3.52,0,0,0,1.37,1.14,4.59,4.59,0,0,0,2,.4,7.32,7.32,0,0,0,1.89-.22,5,5,0,0,0,1.62-.76V33h-3.32V30.84Z"/><path class="cls-5" d="M659,23.8h10V26h-7.43v4h7v2.2h-7v4.43h7.83l-.29,2.19H659Z"/><path class="cls-5" d="M673.93,23.8h2.35l6.89,10.84V23.8h2.48v15h-2.36L676.38,28V38.8h-2.45Z"/><path class="cls-5" d="M690.94,23.8h10V26h-7.43v4h7v2.2h-7v4.43h7.83L701,38.8H690.94Z"/><path class="cls-5" d="M711,23.8a8.48,8.48,0,0,1,2.8.4,4.84,4.84,0,0,1,1.75,1,3.65,3.65,0,0,1,.89,1.42,4.9,4.9,0,0,1,.25,1.53,4.77,4.77,0,0,1-.58,2.46,4.1,4.1,0,0,1-1.85,1.6l3.1,6.55h-2.77l-2.69-6-.39,0h-3.13V38.8h-2.5v-15Zm.19,6.93a4.84,4.84,0,0,0,1.43-.18,2,2,0,0,0,.89-.5,1.8,1.8,0,0,0,.46-.79,3.61,3.61,0,0,0,.14-1,2.63,2.63,0,0,0-.16-.95,1.73,1.73,0,0,0-.52-.74,2.71,2.71,0,0,0-1-.47,5.87,5.87,0,0,0-1.51-.17h-2.56v4.83Z"/><path class="cls-5" d="M726.2,23.8h2.52l5.71,15h-2.71L730.31,35H724.5l-1.39,3.82h-2.63Zm3.42,9.06-2.23-6.18-2.2,6.18Z"/><path class="cls-5" d="M739.91,26h-4.75V23.8h12V26h-4.73V38.8h-2.54Z"/><path class="cls-5" d="M751.27,23.8h2.54v15h-2.54Z"/><path class="cls-5" d="M759.08,23.8h2.35l6.89,10.84V23.8h2.48v15h-2.35L761.54,28V38.8h-2.46Z"/><path class="cls-5" d="M788.5,30.84V37a7.51,7.51,0,0,1-2.73,1.62,9.7,9.7,0,0,1-3.17.55,7.76,7.76,0,0,1-3.05-.56,5.89,5.89,0,0,1-2.2-1.58A6.54,6.54,0,0,1,776,34.58a11,11,0,0,1-.44-3.26,10.43,10.43,0,0,1,.48-3.28,7.13,7.13,0,0,1,1.37-2.49A5.8,5.8,0,0,1,779.58,24a7.08,7.08,0,0,1,2.81-.54,7.49,7.49,0,0,1,2.39.34,5.12,5.12,0,0,1,1.72,1,4.86,4.86,0,0,1,1.13,1.42,6,6,0,0,1,.62,1.73l-2.5.35a6.09,6.09,0,0,0-.41-1.12,2.61,2.61,0,0,0-.63-.83,2.79,2.79,0,0,0-1-.51,4.6,4.6,0,0,0-1.37-.18,4,4,0,0,0-1.84.41,3.64,3.64,0,0,0-1.31,1.16,5.42,5.42,0,0,0-.78,1.81,10.47,10.47,0,0,0-.25,2.33,10.64,10.64,0,0,0,.25,2.37,5.11,5.11,0,0,0,.8,1.8,3.55,3.55,0,0,0,1.38,1.14,4.52,4.52,0,0,0,2,.4,7.32,7.32,0,0,0,1.89-.22,5,5,0,0,0,1.62-.76V33h-3.32V30.84Z"/><path class="cls-5" d="M641.8,43.8h3.08l4.27,11.93,4.39-11.93h3v15h-2.33V47.9l-4.12,10.9h-2l-4-10.88V58.8H641.8Z"/><path class="cls-5" d="M668.34,59.18a7.47,7.47,0,0,1-2.91-.54,6.16,6.16,0,0,1-2.21-1.54,6.9,6.9,0,0,1-1.42-2.47,10.28,10.28,0,0,1-.49-3.31,10.11,10.11,0,0,1,.5-3.32,6.94,6.94,0,0,1,1.43-2.48A6.13,6.13,0,0,1,665.46,44a8.14,8.14,0,0,1,5.78,0,6.08,6.08,0,0,1,2.21,1.54A7.16,7.16,0,0,1,674.84,48a10.33,10.33,0,0,1,.49,3.31,10.66,10.66,0,0,1-.48,3.33,7,7,0,0,1-1.38,2.48,6,6,0,0,1-2.2,1.55A7.54,7.54,0,0,1,668.34,59.18Zm0-2.19a3.83,3.83,0,0,0,3.28-1.52,7,7,0,0,0,1.11-4.17,9.07,9.07,0,0,0-.28-2.37,5.38,5.38,0,0,0-.83-1.79A3.75,3.75,0,0,0,670.23,46a4.76,4.76,0,0,0-3.82,0A3.87,3.87,0,0,0,665,47.14a5,5,0,0,0-.82,1.79,9.07,9.07,0,0,0-.28,2.37,7,7,0,0,0,1.1,4.17A3.83,3.83,0,0,0,668.32,57Z"/><path class="cls-5" d="M685.54,43.8a9.18,9.18,0,0,1,3,.46,5.86,5.86,0,0,1,2.25,1.37A6.1,6.1,0,0,1,692.19,48a9.78,9.78,0,0,1,.49,3.27,9.41,9.41,0,0,1-.52,3.28,6.09,6.09,0,0,1-3.92,3.81,9.69,9.69,0,0,1-3.2.49h-4.92v-15Zm-.42,12.83a6.08,6.08,0,0,0,2.26-.37,4,4,0,0,0,1.53-1.09,4.47,4.47,0,0,0,.87-1.71,8.37,8.37,0,0,0,.28-2.22,6.34,6.34,0,0,0-1-3.88A4,4,0,0,0,685.56,46h-2.9V56.63Z"/><path class="cls-5" d="M697.47,43.8h10V46H700v4h7v2.2h-7v4.43h7.83l-.29,2.19H697.47Z"/><path class="cls-5" d="M714.9,43.8V56.59h7.43L722,58.8h-9.66v-15Z"/><path class="cls-4" d="M1035.8,23.8H1041a8.85,8.85,0,0,1,2.8.38,4.45,4.45,0,0,1,1.73,1,3.4,3.4,0,0,1,.88,1.46,5.84,5.84,0,0,1,.26,1.73,6.62,6.62,0,0,1-.26,1.85,3.47,3.47,0,0,1-.89,1.54,4.45,4.45,0,0,1-1.73,1.05,8.3,8.3,0,0,1-2.75.39h-2.73V38.8h-2.5Zm5.16,7.29a5.4,5.4,0,0,0,1.59-.19,2.35,2.35,0,0,0,1-.53,2,2,0,0,0,.49-.83,4.11,4.11,0,0,0,.14-1.09,3.73,3.73,0,0,0-.15-1.11,1.69,1.69,0,0,0-.52-.79,2.43,2.43,0,0,0-1-.48,6.27,6.27,0,0,0-1.57-.17h-2.64v5.19Z"/><path class="cls-4" d="M1056.32,23.8a8.52,8.52,0,0,1,2.8.4,4.88,4.88,0,0,1,1.74,1,3.43,3.43,0,0,1,.89,1.42,4.92,4.92,0,0,1,.26,1.53,4.87,4.87,0,0,1-.58,2.46,4.18,4.18,0,0,1-1.86,1.6l3.11,6.55h-2.77l-2.69-6-.4,0h-3.13V38.8h-2.5v-15Zm.18,6.93a4.79,4.79,0,0,0,1.43-.18,2,2,0,0,0,.89-.5,1.82,1.82,0,0,0,.47-.79,3.63,3.63,0,0,0,.13-1,2.87,2.87,0,0,0-.15-.95,1.75,1.75,0,0,0-.53-.74,2.56,2.56,0,0,0-1-.47,5.82,5.82,0,0,0-1.51-.17h-2.56v4.83Z"/><path class="cls-4" d="M1066.79,23.8h2.54v15h-2.54Z"/><path class="cls-4" d="M1074.61,23.8H1077l6.89,10.84V23.8h2.47v15H1084L1077.06,28V38.8h-2.45Z"/><path class="cls-4" d="M1095.16,26h-4.74V23.8h12V26h-4.72V38.8h-2.55Z"/><path class="cls-4" d="M1106.53,23.8h2.54v15h-2.54Z"/><path class="cls-4" d="M1114.34,23.8h2.35l6.89,10.84V23.8h2.47v15h-2.35L1116.79,28V38.8h-2.45Z"/><path class="cls-4" d="M1143.76,30.84V37a7.51,7.51,0,0,1-2.73,1.62,9.75,9.75,0,0,1-3.17.55,7.81,7.81,0,0,1-3.06-.56,5.85,5.85,0,0,1-2.19-1.58,6.7,6.7,0,0,1-1.33-2.46,11.33,11.33,0,0,1-.44-3.26,10.14,10.14,0,0,1,.49-3.28,7.11,7.11,0,0,1,1.36-2.49,5.89,5.89,0,0,1,2.14-1.58,7.09,7.09,0,0,1,2.82-.54,7.43,7.43,0,0,1,2.38.34,5,5,0,0,1,1.72,1,4.89,4.89,0,0,1,1.14,1.42,6.59,6.59,0,0,1,.62,1.73l-2.5.35a6.92,6.92,0,0,0-.41-1.12,2.61,2.61,0,0,0-.63-.83,2.75,2.75,0,0,0-1-.51,4.53,4.53,0,0,0-1.36-.18,4,4,0,0,0-1.84.41,3.56,3.56,0,0,0-1.31,1.16,5.42,5.42,0,0,0-.78,1.81,9.91,9.91,0,0,0-.25,2.33,10.08,10.08,0,0,0,.25,2.37,4.94,4.94,0,0,0,.8,1.8,3.52,3.52,0,0,0,1.37,1.14,4.56,4.56,0,0,0,2,.4,7.32,7.32,0,0,0,1.89-.22,5,5,0,0,0,1.62-.76V33h-3.32V30.84Z"/><path class="cls-4" d="M1042.33,59.18a7.47,7.47,0,0,1-2.91-.54,6.16,6.16,0,0,1-2.21-1.54,6.9,6.9,0,0,1-1.42-2.47,10.28,10.28,0,0,1-.5-3.31,10.11,10.11,0,0,1,.51-3.32,6.8,6.8,0,0,1,1.43-2.48,6,6,0,0,1,2.22-1.56,8.14,8.14,0,0,1,5.78,0,6,6,0,0,1,2.2,1.54,7.17,7.17,0,0,1,1.4,2.47,10.33,10.33,0,0,1,.49,3.31,10.66,10.66,0,0,1-.48,3.33,7,7,0,0,1-1.39,2.48,5.91,5.91,0,0,1-2.19,1.55A7.54,7.54,0,0,1,1042.33,59.18Zm0-2.19a3.8,3.8,0,0,0,3.27-1.52,6.88,6.88,0,0,0,1.12-4.17,9,9,0,0,0-.29-2.37,5.19,5.19,0,0,0-.83-1.79,3.64,3.64,0,0,0-1.36-1.13,4.76,4.76,0,0,0-3.82,0,3.78,3.78,0,0,0-1.38,1.13,5,5,0,0,0-.83,1.79,9.53,9.53,0,0,0-.27,2.37,7,7,0,0,0,1.1,4.17A3.81,3.81,0,0,0,1042.31,57Z"/><path class="cls-4" d="M1054.11,43.8h5.19a9.86,9.86,0,0,1,2.68.31,4.29,4.29,0,0,1,1.67.84,2.65,2.65,0,0,1,.85,1.26,4.87,4.87,0,0,1,.24,1.54,3.78,3.78,0,0,1-.42,1.76,3.22,3.22,0,0,1-1.54,1.33,4.85,4.85,0,0,1,1.18.71,3.56,3.56,0,0,1,.73.85,3,3,0,0,1,.38,1,4.79,4.79,0,0,1,.11,1,5.29,5.29,0,0,1-.29,1.74,3.51,3.51,0,0,1-.93,1.42,4.62,4.62,0,0,1-1.7.94,8.36,8.36,0,0,1-2.59.35h-5.56Zm5.48,6.16a3,3,0,0,0,2.08-.55,2,2,0,0,0,.59-1.57,1.76,1.76,0,0,0-.68-1.55,4.44,4.44,0,0,0-2.37-.47h-2.64V50Zm0,6.8a5.34,5.34,0,0,0,1.5-.17,2.29,2.29,0,0,0,1-.48,1.75,1.75,0,0,0,.49-.76,3,3,0,0,0,.15-1,2.29,2.29,0,0,0-.64-1.74,3.3,3.3,0,0,0-2.22-.59h-3.25v4.72Z"/><path class="cls-4" d="M1071.39,54a7,7,0,0,0,.27,1.25,2.46,2.46,0,0,0,.52.94,2.32,2.32,0,0,0,.88.61,3.48,3.48,0,0,0,1.34.22,2.52,2.52,0,0,0,2.18-.88,4.23,4.23,0,0,0,.65-2.52V43.8h2.54v10a5.32,5.32,0,0,1-1.44,4.05,5.41,5.41,0,0,1-3.89,1.37,5.77,5.77,0,0,1-4-1.26,5.62,5.62,0,0,1-1.6-4Z"/><path class="cls-4" d="M1084.92,43.8h10V46h-7.43v4h7v2.2h-7v4.43h7.83L1095,58.8h-10.08Z"/><path class="cls-4" d="M1112.15,53.74a7.15,7.15,0,0,1-.56,2.16,5.39,5.39,0,0,1-1.22,1.72,5.61,5.61,0,0,1-1.89,1.15,7.51,7.51,0,0,1-2.58.41,7.34,7.34,0,0,1-2.89-.55,5.78,5.78,0,0,1-2.14-1.56,6.94,6.94,0,0,1-1.33-2.48,11.1,11.1,0,0,1-.45-3.27,10.68,10.68,0,0,1,.49-3.32,7,7,0,0,1,1.4-2.48,6,6,0,0,1,2.16-1.56,7,7,0,0,1,2.78-.53,7.37,7.37,0,0,1,2.43.35,5.09,5.09,0,0,1,1.76,1,5,5,0,0,1,1.15,1.59,8.29,8.29,0,0,1,.64,2.06l-2.5.35a7.29,7.29,0,0,0-.42-1.34,3.23,3.23,0,0,0-.66-1,2.84,2.84,0,0,0-1-.63,3.92,3.92,0,0,0-1.4-.22,3.81,3.81,0,0,0-1.79.4,3.76,3.76,0,0,0-1.31,1.14A5.31,5.31,0,0,0,1102,49a9.43,9.43,0,0,0-.27,2.35,9.07,9.07,0,0,0,.28,2.37,5.53,5.53,0,0,0,.83,1.8,3.62,3.62,0,0,0,1.31,1.13,3.83,3.83,0,0,0,1.76.39,4.22,4.22,0,0,0,1.5-.23,2.83,2.83,0,0,0,1-.65,3,3,0,0,0,.66-1,5.34,5.34,0,0,0,.34-1.35Z"/><path class="cls-4" d="M1119.57,46h-4.75V43.8h12V46h-4.72V58.8h-2.54Z"/></g></g></svg>