<?xml version="1.0" encoding="UTF-8"?><svg version="1.1" viewBox="0 0 64 64" xmlns="http://www.w3.org/2000/svg" xmlns:xlink="http://www.w3.org/1999/xlink"><!--Generated by IJSVG (https://github.com/iconjar/IJSVG)--><path d="M29.01,10.0209l3.41257e-08,-4.70877e-11c10.4791,-0.0144588 18.9858,8.46881 19.0003,18.9479c0.00564336,4.09007 -1.31049,8.07247 -3.75226,11.3537l10.2571,8.6757l2.46929e-08,2.10727e-08c1.64706,1.40559 1.84281,3.88024 0.437222,5.5273c-1.40559,1.64706 -3.88024,1.84281 -5.5273,0.437222c-0.157024,-0.134003 -0.303219,-0.280198 -0.437222,-0.437222l-8.6778,-10.2555l-1.63845e-07,1.21433e-07c-8.4266,6.24536 -20.3206,4.47711 -26.5659,-3.94948c-6.24536,-8.4266 -4.47711,-20.3206 3.94948,-26.5659c3.27388,-2.42643 7.24141,-3.73546 11.3164,-3.7337Zm0,34l-6.55671e-07,-1.42109e-14c8.28427,3.62117e-07 15,-6.71573 15,-15c3.62117e-07,-8.28427 -6.71573,-15 -15,-15c-8.28427,-3.62117e-07 -15,6.71573 -15,15l-3.28805e-10,-9.70794e-05c1.25088e-06,8.28423 6.71567,14.9999 14.9999,15Z" fill="#000" fill-rule="evenodd"></path></svg>